<?xml version="1.0" encoding="UTF-8" standalone="no"?>
<!-- Created with Inkscape (http://www.inkscape.org/) -->
<svg xmlns:dc="http://purl.org/dc/elements/1.1/" xmlns:cc="http://creativecommons.org/ns#" xmlns:rdf="http://www.w3.org/1999/02/22-rdf-syntax-ns#" xmlns:svg="http://www.w3.org/2000/svg" xmlns="http://www.w3.org/2000/svg" xmlns:sodipodi="http://sodipodi.sourceforge.net/DTD/sodipodi-0.dtd" xmlns:inkscape="http://www.inkscape.org/namespaces/inkscape" width="410" height="410" id="svg27183" version="1.1" inkscape:version="0.48.1 " sodipodi:docname="all.svg">
  <defs id="defs27185"/>
  <sodipodi:namedview id="base" pagecolor="#ffffff" bordercolor="#666666" borderopacity="1.0" inkscape:pageopacity="0.0" inkscape:pageshadow="2" inkscape:zoom="0.12374369" inkscape:cx="-1557.4949" inkscape:cy="603.62598" inkscape:document-units="px" inkscape:current-layer="layer1" showgrid="false" inkscape:window-width="1366" inkscape:window-height="706" inkscape:window-x="-8" inkscape:window-y="-8" inkscape:window-maximized="1"/>
  <metadata id="metadata27188">
    <rdf:RDF>
      <cc:Work rdf:about="">
        <dc:format>image/svg+xml</dc:format>
        <dc:type rdf:resource="http://purl.org/dc/dcmitype/StillImage"/>
        <dc:title/>
      </cc:Work>
    </rdf:RDF>
  </metadata>
  <g inkscape:label="Layer 1" inkscape:groupmode="layer" id="layer1" transform="translate(0,-642.36218)">
    <g id="g27825" transform="matrix(1.8463602,0,0,1.8463602,-1379.7405,1783.9516)">
      <g style="fill:none;stroke:#e12d0e;stroke-opacity:1" transform="matrix(2.4507313,0,0,2.4507313,0.23673465,-655.60855)" id="g22427-5-6-5-5-6-5">
        <path transform="matrix(1,0,0,1.1869725,4.3884277e-6,-3.3591382)" sodipodi:type="arc" style="fill:none;stroke:#e12d0e;stroke-width:3;stroke-miterlimit:4;stroke-opacity:1;stroke-dasharray:none" id="path21774-0-8-0-8-9-8-2" sodipodi:cx="351.02802" sodipodi:cy="53.826393" sodipodi:rx="17.67767" sodipodi:ry="35.860416" d="m 368.70568,53.826393 c 0,19.805161 -7.91456,35.860417 -17.67766,35.860417 -9.76311,0 -17.67767,-16.055256 -17.67767,-35.860417 0,-19.805161 7.91456,-35.860416 17.67767,-35.860416 9.7631,0 17.67766,16.055255 17.67766,35.860416 z"/>
        <path transform="matrix(0.48017573,0.87717231,-1.0411794,0.56995539,238.51582,-278.05936)" sodipodi:type="arc" style="fill:none;stroke:#e12d0e;stroke-width:3;stroke-miterlimit:4;stroke-opacity:1;stroke-dasharray:none" id="path21774-0-5-9-0-2-5-0-8" sodipodi:cx="351.02802" sodipodi:cy="53.826393" sodipodi:rx="17.67767" sodipodi:ry="35.860416" d="m 368.70568,53.826393 c 0,19.805161 -7.91456,35.860417 -17.67766,35.860417 -9.76311,0 -17.67767,-16.055256 -17.67767,-35.860417 0,-19.805161 7.91456,-35.860416 17.67767,-35.860416 9.7631,0 17.67766,16.055255 17.67766,35.860416 z"/>
        <path transform="matrix(-0.48017573,0.87717231,1.0411794,0.56995539,463.54022,-278.05941)" sodipodi:type="arc" style="fill:none;stroke:#e12d0e;stroke-width:3;stroke-miterlimit:4;stroke-opacity:1;stroke-dasharray:none" id="path21774-0-5-7-1-7-9-1-7-3" sodipodi:cx="351.02802" sodipodi:cy="53.826393" sodipodi:rx="17.67767" sodipodi:ry="35.860416" d="m 368.70568,53.826393 c 0,19.805161 -7.91456,35.860417 -17.67766,35.860417 -9.76311,0 -17.67767,-16.055256 -17.67767,-35.860417 0,-19.805161 7.91456,-35.860416 17.67767,-35.860416 9.7631,0 17.67766,16.055255 17.67766,35.860416 z"/>
      </g>
      <g transform="matrix(5.0035369,0,0,5.0035369,1361.2155,-635.16779)" style="fill:#2f2f2f;fill-opacity:1" id="g23322-7-1-3-4">
        <path d="m -104.78314,25.563003 c 0,2.602997 2.11019,4.713118 4.71327,4.713118 2.603084,0 4.713279,-2.110121 4.713279,-4.713118 0,-2.603002 -2.110195,-4.713118 -4.713279,-4.713118 -2.60308,0 -4.71327,2.110116 -4.71327,4.713118 z" id="path3793-2-3-5-3-5-0-5-5" inkscape:connector-curvature="0" style="fill:#2f2f2f;fill-opacity:1;fill-rule:evenodd"/>
        <path d="m -120.51095,20.009427 c 0,1.082006 0.87716,1.959134 1.9592,1.959134 1.08204,0 1.95919,-0.877128 1.95919,-1.959134 0,-1.082007 -0.87715,-1.959134 -1.95919,-1.959134 -1.08204,0 -1.9592,0.877127 -1.9592,1.959134 z" id="path3793-2-3-0-4-6-5-6-4-3" inkscape:connector-curvature="0" style="fill:#2f2f2f;fill-opacity:1;fill-rule:evenodd"/>
        <path d="m -113.90361,37.832214 c 0,1.082005 0.87716,1.959134 1.9592,1.959134 1.08204,0 1.95919,-0.877129 1.95919,-1.959134 0,-1.082008 -0.87715,-1.959134 -1.95919,-1.959134 -1.08204,0 -1.9592,0.877126 -1.9592,1.959134 z" id="path3793-2-3-0-3-5-1-8-0-3-7" inkscape:connector-curvature="0" style="fill:#2f2f2f;fill-opacity:1;fill-rule:evenodd"/>
        <path d="m -97.328735,42.779941 c 0,1.082006 0.877159,1.959134 1.9592,1.959134 1.08204,0 1.959199,-0.877128 1.959199,-1.959134 0,-1.082007 -0.877159,-1.959134 -1.959199,-1.959134 -1.082041,0 -1.9592,0.877127 -1.9592,1.959134 z" id="path3793-2-3-0-3-3-2-4-6-9-5-5" inkscape:connector-curvature="0" style="fill:#2f2f2f;fill-opacity:1;fill-rule:evenodd"/>
        <path d="m -84.712031,21.257335 c 0,1.082005 0.877159,1.959134 1.9592,1.959134 1.08204,0 1.959199,-0.877129 1.959199,-1.959134 0,-1.082008 -0.877159,-1.959134 -1.959199,-1.959134 -1.082041,0 -1.9592,0.877126 -1.9592,1.959134 z" id="path3793-2-3-0-3-3-9-4-8-6-3-4-2" inkscape:connector-curvature="0" style="fill:#2f2f2f;fill-opacity:1;fill-rule:evenodd"/>
        <path d="m -97.576118,7.4037054 c 0,1.0820055 0.877159,1.959134 1.9592,1.959134 1.08204,0 1.959199,-0.8771285 1.959199,-1.959134 0,-1.0820076 -0.877159,-1.959134 -1.959199,-1.959134 -1.082041,0 -1.9592,0.8771264 -1.9592,1.959134 z" id="path3793-2-3-0-3-3-9-3-3-4-5-0-7-5" inkscape:connector-curvature="0" style="fill:#2f2f2f;fill-opacity:1;fill-rule:evenodd"/>
      </g>
      <g transform="matrix(5.0035369,0,0,5.0035369,1361.2155,-635.16779)" id="g23314-3-5-3-3">
        <path d="m -98.447664,23.653186 c 0,0.58365 0.473162,1.056831 1.056831,1.056831 0.58367,0 1.056827,-0.473161 1.056827,-1.056831 0,-0.58367 -0.473157,-1.056827 -1.056827,-1.056827 -0.583669,0 -1.056831,0.473157 -1.056831,1.056827 z" id="path3795-5-3-7-3-7-6-8-2" inkscape:connector-curvature="0" style="fill:#ffffff;fill-rule:evenodd"/>
        <path d="m -117.87744,19.21556 c 0,0.24261 0.19668,0.439301 0.4393,0.439301 0.24262,0 0.4393,-0.196682 0.4393,-0.439301 0,-0.242618 -0.19668,-0.439298 -0.4393,-0.439298 -0.24262,0 -0.4393,0.19668 -0.4393,0.439298 z" id="path3795-5-3-2-7-8-1-9-2-2" inkscape:connector-curvature="0" style="fill:#ffffff;fill-rule:evenodd"/>
        <path d="m -111.2701,37.038347 c 0,0.24261 0.19668,0.4393 0.4393,0.4393 0.24262,0 0.4393,-0.196682 0.4393,-0.4393 0,-0.242618 -0.19668,-0.439298 -0.4393,-0.439298 -0.24262,0 -0.4393,0.19668 -0.4393,0.439298 z" id="path3795-5-3-2-5-8-5-2-1-8-0" inkscape:connector-curvature="0" style="fill:#ffffff;fill-rule:evenodd"/>
        <path d="m -94.695224,41.986074 c 0,0.24261 0.196683,0.439301 0.439301,0.439301 0.242618,0 0.439298,-0.196682 0.439298,-0.439301 0,-0.242618 -0.19668,-0.439298 -0.439298,-0.439298 -0.242618,0 -0.439301,0.19668 -0.439301,0.439298 z" id="path3795-5-3-2-5-3-2-8-4-4-1-3" inkscape:connector-curvature="0" style="fill:#ffffff;fill-rule:evenodd"/>
        <path d="m -82.07852,20.463468 c 0,0.24261 0.196683,0.4393 0.439301,0.4393 0.242618,0 0.439298,-0.196682 0.439298,-0.4393 0,-0.242618 -0.19668,-0.439298 -0.439298,-0.439298 -0.242618,0 -0.439301,0.19668 -0.439301,0.439298 z" id="path3795-5-3-2-5-3-7-4-2-2-7-0-4" inkscape:connector-curvature="0" style="fill:#ffffff;fill-rule:evenodd"/>
        <path d="m -94.942607,6.6098385 c 0,0.2426099 0.196683,0.4393002 0.439301,0.4393002 0.242618,0 0.439298,-0.1966822 0.439298,-0.4393002 0,-0.2426181 -0.19668,-0.4392982 -0.439298,-0.4392982 -0.242618,0 -0.439301,0.1966801 -0.439301,0.4392982 z" id="path3795-5-3-2-5-3-7-2-7-7-1-4-2-4" inkscape:connector-curvature="0" style="fill:#ffffff;fill-rule:evenodd"/>
      </g>
    </g>
  </g>
</svg>